<?xml version="1.0" standalone="no"?>
<svg xmlns="http://www.w3.org/2000/svg"
     width="4.724409448818898in"
     height="3.1496062992125986in"
     viewBox="0 0 120.0 80.0">

  <path d="M 4 0 H 10
M 20 0 H 30
M 40 0 H 80.0
M 90.0 0 H 100.0
M 110.0 0 H 116.0
M 0 10 V 20
M 0 30 V 40
M 0 50 V 60
M 0 70 V 80
M 120.0 10 V 20
M 120.0 30 V 40
M 120.0 50 V 60
M 120.0 70 V 80
M 0 80.0 H 120.0

        M 10 0
        V 4
        H 13.85
        V 7
        H 12.5
        V 8.8
        H 13.85
        V 10
        H 16.15
        V 8.8
        H 17.5
        V 7
        H 16.15
        V 4
        H 20
        V 0
        
        M 30 0
        V 4
        H 33.85
        V 7
        H 32.5
        V 8.8
        H 33.85
        V 10
        H 36.15
        V 8.8
        H 37.5
        V 7
        H 36.15
        V 4
        H 40
        V 0
        
        M 80.0 0
        V 4
        H 83.85
        V 7
        H 82.5
        V 8.8
        H 83.85
        V 10
        H 86.15
        V 8.8
        H 87.5
        V 7
        H 86.15
        V 4
        H 90.0
        V 0
        
        M 100.0 0
        V 4
        H 103.85
        V 7
        H 102.5
        V 8.8
        H 103.85
        V 10
        H 106.15
        V 8.8
        H 107.5
        V 7
        H 106.15
        V 4
        H 110.0
        V 0
        
        M 0 120.0
        V 120.0
        
        M 120.0 120.0
        V 120.0
        
            M 4 0
            V 10
            H 0
            
            M 116.0 0
            V 10
            H 120.0
            
            M 0 20
            H 4
            V 23.85
            H 7
            V 22.5
            H 8.8
            V 23.85
            H 10
            V 26.15
            H 8.8
            V 27.5
            H 7
            V 26.15
            H 4
            V 30
            H 0
            
                M 120.0 20
                H 116.0
                V 23.85
                H 113.0
                V 22.5
                H 111.2
                V 23.85
                H 110.0
                V 26.15
                H 111.2
                V 27.5
                H 113.0
                V 26.15
                H 116.0
                V 30
                H 120.0
                
            M 0 40
            H 4
            V 43.85
            H 7
            V 42.5
            H 8.8
            V 43.85
            H 10
            V 46.15
            H 8.8
            V 47.5
            H 7
            V 46.15
            H 4
            V 50
            H 0
            
                M 120.0 40
                H 116.0
                V 43.85
                H 113.0
                V 42.5
                H 111.2
                V 43.85
                H 110.0
                V 46.15
                H 111.2
                V 47.5
                H 113.0
                V 46.15
                H 116.0
                V 50
                H 120.0
                
            M 0 60
            H 4
            V 63.85
            H 7
            V 62.5
            H 8.8
            V 63.85
            H 10
            V 66.15
            H 8.8
            V 67.5
            H 7
            V 66.15
            H 4
            V 70
            H 0
            
                M 120.0 60
                H 116.0
                V 63.85
                H 113.0
                V 62.5
                H 111.2
                V 63.85
                H 110.0
                V 66.15
                H 111.2
                V 67.5
                H 113.0
                V 66.15
                H 116.0
                V 70
                H 120.0
                
    M 0 76.0 
    V 80.0
    
    M 120.0 76.0
    V 80.0
    "
        fill="none"
        stroke="black"
        stroke-width="0.05"
        fill-rule="evenodd"/>

  <g fill="none" stroke="green" stroke-width="0.05">
    
                 <circle cx="25.0"
                    cy="2.0"
                    r="1.15" />
                 
                 <circle cx="45.0"
                    cy="2.0"
                    r="1.15" />
                 
                 <circle cx="75.0"
                    cy="2.0"
                    r="1.15"/>
                    
                 <circle cx="95.0"
                    cy="2.0"
                    r="1.15"/>
                    
            <circle cx="2.0"
                    cy="15.0"
                    r="1.15" />
            
             <circle cx="118.0"
                cy="15.0"
                r="1.15" />
             
            <circle cx="2.0"
                    cy="35.0"
                    r="1.15" />
            
             <circle cx="118.0"
                cy="35.0"
                r="1.15" />
             
            <circle cx="2.0"
                    cy="55.0"
                    r="1.15" />
            
             <circle cx="118.0"
                cy="55.0"
                r="1.15" />
             
            <circle cx="2.0"
                    cy="75.0"
                    r="1.15" />
            
             <circle cx="118.0"
                cy="75.0"
                r="1.15" />
             
  </g>

  <path d="M 60.00 40.00 L 72.00 40.00 M 63.60 40.00 L 63.60 43.60 M 63.60 40.00 L 63.60 36.40 M 68.40 40.00 L 68.40 43.60 M 68.40 40.00 L 68.40 36.40 M 60.00 40.00 L 66.00 50.39 M 61.80 43.12 L 58.68 44.92 M 61.80 43.12 L 64.92 41.32 M 64.20 47.27 L 61.08 49.07 M 64.20 47.27 L 67.32 45.47 M 60.00 40.00 L 54.00 50.39 M 58.20 43.12 L 55.08 41.32 M 58.20 43.12 L 61.32 44.92 M 55.80 47.27 L 52.68 45.47 M 55.80 47.27 L 58.92 49.07 M 60.00 40.00 L 48.00 40.00 M 56.40 40.00 L 56.40 36.40 M 56.40 40.00 L 56.40 43.60 M 51.60 40.00 L 51.60 36.40 M 51.60 40.00 L 51.60 43.60 M 60.00 40.00 L 54.00 29.61 M 58.20 36.88 L 61.32 35.08 M 58.20 36.88 L 55.08 38.68 M 55.80 32.73 L 58.92 30.93 M 55.80 32.73 L 52.68 34.53 M 60.00 40.00 L 66.00 29.61 M 61.80 36.88 L 64.92 38.68 M 61.80 36.88 L 58.68 35.08 M 64.20 32.73 L 67.32 34.53 M 64.20 32.73 L 61.08 30.93 M 62.40,40.00 L 61.20,42.08 L 58.80,42.08 L 57.60,40.00 L 58.80,37.92 L 61.20,37.92 Z"
        fill="none"
        stroke="yellow"
        stroke-width="0.1"
        stroke-linecap="round"/>

</svg>
